<mxfile host="Electron" agent="Mozilla/5.0 (Windows NT 10.0; Win64; x64) AppleWebKit/537.36 (KHTML, like Gecko) draw.io/26.0.15 Chrome/132.0.6834.196 Electron/34.2.0 Safari/537.36" version="26.0.15">
  <diagram name="Page-1" id="r2_2YA5K_IkCOgmWWGXc">
    <mxGraphModel dx="1195" dy="703" grid="1" gridSize="10" guides="1" tooltips="1" connect="1" arrows="1" fold="1" page="1" pageScale="1" pageWidth="827" pageHeight="1169" math="0" shadow="0">
      <root>
        <mxCell id="0" />
        <mxCell id="1" parent="0" />
        <mxCell id="DtbgAuB2BSBWwKxTYoln-26" value="" style="rounded=0;whiteSpace=wrap;html=1;fillColor=#FFFFFF;strokeColor=#000000;" parent="1" vertex="1">
          <mxGeometry x="80" y="310" width="410" height="440" as="geometry" />
        </mxCell>
        <mxCell id="kZnphsI6zPI48kDzl5fM-2" value="" style="whiteSpace=wrap;html=1;aspect=fixed;fillColor=#f5f5f5;strokeColor=#666666;fontColor=#333333;" parent="1" vertex="1">
          <mxGeometry x="337.24" y="155" width="110" height="110" as="geometry" />
        </mxCell>
        <mxCell id="kZnphsI6zPI48kDzl5fM-1" value="Benutzer" style="shape=umlActor;verticalLabelPosition=bottom;verticalAlign=top;html=1;outlineConnect=0;" parent="1" vertex="1">
          <mxGeometry x="373.36" y="180" width="30" height="60" as="geometry" />
        </mxCell>
        <mxCell id="kZnphsI6zPI48kDzl5fM-6" style="edgeStyle=orthogonalEdgeStyle;rounded=0;orthogonalLoop=1;jettySize=auto;html=1;exitX=0.5;exitY=0;exitDx=0;exitDy=0;" parent="1" edge="1">
          <mxGeometry relative="1" as="geometry">
            <mxPoint x="295" y="270" as="targetPoint" />
            <mxPoint x="295" y="270" as="sourcePoint" />
          </mxGeometry>
        </mxCell>
        <mxCell id="kZnphsI6zPI48kDzl5fM-8" value="" style="endArrow=none;dashed=1;html=1;dashPattern=1 3;strokeWidth=2;rounded=0;exitX=0.5;exitY=0;exitDx=0;exitDy=0;entryX=0.5;entryY=1;entryDx=0;entryDy=0;" parent="1" source="4pukfur7Fkz4aeUhOezn-5" target="kZnphsI6zPI48kDzl5fM-2" edge="1">
          <mxGeometry width="50" height="50" relative="1" as="geometry">
            <mxPoint x="260" y="340" as="sourcePoint" />
            <mxPoint x="250" y="250" as="targetPoint" />
          </mxGeometry>
        </mxCell>
        <mxCell id="kZnphsI6zPI48kDzl5fM-25" value="Will Hautläsion scannen" style="edgeLabel;html=1;align=center;verticalAlign=middle;resizable=0;points=[];" parent="kZnphsI6zPI48kDzl5fM-8" vertex="1" connectable="0">
          <mxGeometry x="-0.16" y="-1" relative="1" as="geometry">
            <mxPoint x="25" y="-8" as="offset" />
          </mxGeometry>
        </mxCell>
        <mxCell id="4pukfur7Fkz4aeUhOezn-5" value="&lt;font size=&quot;1&quot;&gt;&lt;br&gt;&lt;br&gt;Stellt Verbindung zur KI her&lt;br&gt;und gibt die Möglichkeit zur&amp;nbsp;&lt;br&gt;Früherkennung&lt;/font&gt;" style="rounded=0;whiteSpace=wrap;html=1;fillColor=#ffe6cc;strokeColor=#d79b00;" parent="1" vertex="1">
          <mxGeometry x="230" y="390" width="132.5" height="80" as="geometry" />
        </mxCell>
        <mxCell id="4pukfur7Fkz4aeUhOezn-3" value="&lt;font style=&quot;font-size: 12px;&quot;&gt;Mobile App&lt;/font&gt;" style="text;html=1;align=center;verticalAlign=middle;whiteSpace=wrap;rounded=0;fontSize=9;" parent="1" vertex="1">
          <mxGeometry x="257.36" y="390" width="85" height="30" as="geometry" />
        </mxCell>
        <mxCell id="4pukfur7Fkz4aeUhOezn-4" value="&lt;font style=&quot;font-size: 8px;&quot;&gt;[Container: Android-Studio]&lt;/font&gt;" style="text;html=1;align=center;verticalAlign=middle;whiteSpace=wrap;rounded=0;" parent="1" vertex="1">
          <mxGeometry x="242.24" y="410" width="115.25" height="10" as="geometry" />
        </mxCell>
        <mxCell id="DtbgAuB2BSBWwKxTYoln-7" value="&lt;div&gt;&lt;br&gt;&lt;/div&gt;&lt;div&gt;&lt;br&gt;&lt;/div&gt;Stellt KI-Funktionalitäten via JSON/HTTPS API zur Verfügung." style="rounded=0;whiteSpace=wrap;html=1;fontSize=10;align=center;fillColor=#d5e8d4;strokeColor=#82b366;" parent="1" vertex="1">
          <mxGeometry x="322.24" y="520" width="132.24" height="80" as="geometry" />
        </mxCell>
        <mxCell id="DtbgAuB2BSBWwKxTYoln-8" value="&lt;font style=&quot;font-size: 12px;&quot;&gt;KI-Backend&lt;/font&gt;" style="text;html=1;align=center;verticalAlign=middle;whiteSpace=wrap;rounded=0;fontSize=9;" parent="1" vertex="1">
          <mxGeometry x="352.24" y="520" width="72.25" height="20" as="geometry" />
        </mxCell>
        <mxCell id="DtbgAuB2BSBWwKxTYoln-10" value="&lt;font style=&quot;font-size: 8px;&quot;&gt;[Container: Python]&lt;/font&gt;" style="text;html=1;align=center;verticalAlign=middle;whiteSpace=wrap;rounded=0;" parent="1" vertex="1">
          <mxGeometry x="348.43" y="530" width="79.87" height="20" as="geometry" />
        </mxCell>
        <mxCell id="DtbgAuB2BSBWwKxTYoln-12" value="&lt;br&gt;&lt;br&gt;Stellt Datenbankfuntkionen mittels JSON/HTTP API zur Verfügung.&lt;div&gt;&lt;/div&gt;" style="rounded=0;whiteSpace=wrap;html=1;fontSize=10;align=center;fillColor=#d5e8d4;strokeColor=#82b366;" parent="1" vertex="1">
          <mxGeometry x="322.24" y="650" width="140" height="80" as="geometry" />
        </mxCell>
        <mxCell id="DtbgAuB2BSBWwKxTYoln-13" value="&lt;span style=&quot;font-size: 12px;&quot;&gt;Database-API&lt;/span&gt;" style="text;html=1;align=center;verticalAlign=middle;whiteSpace=wrap;rounded=0;fontSize=9;" parent="1" vertex="1">
          <mxGeometry x="347.44" y="650" width="82.11" height="20" as="geometry" />
        </mxCell>
        <mxCell id="DtbgAuB2BSBWwKxTYoln-14" value="&lt;font style=&quot;font-size: 8px;&quot;&gt;[Container: Typescript]&lt;/font&gt;" style="text;html=1;align=center;verticalAlign=middle;whiteSpace=wrap;rounded=0;" parent="1" vertex="1">
          <mxGeometry x="344.81" y="660" width="83.49" height="20" as="geometry" />
        </mxCell>
        <mxCell id="DtbgAuB2BSBWwKxTYoln-15" value="&lt;br&gt;Algorithmus für das Zuschneiden von Bildern.&lt;div&gt;&lt;/div&gt;" style="rounded=0;whiteSpace=wrap;html=1;fontSize=10;align=center;fillColor=#d5e8d4;strokeColor=#82b366;" parent="1" vertex="1">
          <mxGeometry x="109.99999999999999" y="650" width="132.24" height="80" as="geometry" />
        </mxCell>
        <mxCell id="DtbgAuB2BSBWwKxTYoln-16" value="&lt;font style=&quot;font-size: 12px;&quot;&gt;Bilder zuschneiden&lt;/font&gt;" style="text;html=1;align=center;verticalAlign=middle;whiteSpace=wrap;rounded=0;fontSize=9;" parent="1" vertex="1">
          <mxGeometry x="119.99999999999999" y="650" width="112.24" height="20" as="geometry" />
        </mxCell>
        <mxCell id="DtbgAuB2BSBWwKxTYoln-17" value="&lt;font style=&quot;font-size: 8px;&quot;&gt;[Container: Python]&lt;/font&gt;" style="text;html=1;align=center;verticalAlign=middle;whiteSpace=wrap;rounded=0;" parent="1" vertex="1">
          <mxGeometry x="136.19" y="660" width="79.87" height="20" as="geometry" />
        </mxCell>
        <mxCell id="DtbgAuB2BSBWwKxTYoln-19" value="" style="endArrow=none;dashed=1;html=1;dashPattern=1 3;strokeWidth=2;rounded=0;entryX=0.5;entryY=1;entryDx=0;entryDy=0;exitX=0.5;exitY=0;exitDx=0;exitDy=0;" parent="1" source="DtbgAuB2BSBWwKxTYoln-8" target="4pukfur7Fkz4aeUhOezn-5" edge="1">
          <mxGeometry width="50" height="50" relative="1" as="geometry">
            <mxPoint x="322.24" y="540" as="sourcePoint" />
            <mxPoint x="372.24" y="490" as="targetPoint" />
          </mxGeometry>
        </mxCell>
        <mxCell id="DtbgAuB2BSBWwKxTYoln-21" value="Macht API Aufruf&amp;nbsp;&lt;br&gt;[JSON]" style="edgeLabel;html=1;align=center;verticalAlign=middle;resizable=0;points=[];" parent="DtbgAuB2BSBWwKxTYoln-19" vertex="1" connectable="0">
          <mxGeometry x="0.1567" relative="1" as="geometry">
            <mxPoint as="offset" />
          </mxGeometry>
        </mxCell>
        <mxCell id="DtbgAuB2BSBWwKxTYoln-24" value="" style="endArrow=none;dashed=1;html=1;dashPattern=1 3;strokeWidth=2;rounded=0;entryX=0.5;entryY=1;entryDx=0;entryDy=0;exitX=0.5;exitY=0;exitDx=0;exitDy=0;" parent="1" source="DtbgAuB2BSBWwKxTYoln-13" target="DtbgAuB2BSBWwKxTYoln-7" edge="1">
          <mxGeometry width="50" height="50" relative="1" as="geometry">
            <mxPoint x="292.24" y="590" as="sourcePoint" />
            <mxPoint x="342.24" y="540" as="targetPoint" />
          </mxGeometry>
        </mxCell>
        <mxCell id="DtbgAuB2BSBWwKxTYoln-25" value="Macht API aufruge&amp;nbsp;&lt;br&gt;[JSON]" style="edgeLabel;html=1;align=center;verticalAlign=middle;resizable=0;points=[];" parent="DtbgAuB2BSBWwKxTYoln-24" vertex="1" connectable="0">
          <mxGeometry x="-0.133" relative="1" as="geometry">
            <mxPoint as="offset" />
          </mxGeometry>
        </mxCell>
        <mxCell id="DtbgAuB2BSBWwKxTYoln-27" value="DermaAI-System" style="text;html=1;align=center;verticalAlign=middle;whiteSpace=wrap;rounded=0;" parent="1" vertex="1">
          <mxGeometry x="380" y="750" width="110" as="geometry" />
        </mxCell>
        <mxCell id="DtbgAuB2BSBWwKxTYoln-32" value="" style="endArrow=none;dashed=1;html=1;dashPattern=1 3;strokeWidth=2;rounded=0;exitX=0.5;exitY=0;exitDx=0;exitDy=0;entryX=0.5;entryY=1;entryDx=0;entryDy=0;" parent="1" source="DtbgAuB2BSBWwKxTYoln-16" target="DtbgAuB2BSBWwKxTYoln-7" edge="1">
          <mxGeometry width="50" height="50" relative="1" as="geometry">
            <mxPoint x="170" y="540" as="sourcePoint" />
            <mxPoint x="220" y="490" as="targetPoint" />
          </mxGeometry>
        </mxCell>
        <mxCell id="DtbgAuB2BSBWwKxTYoln-33" value="Macht API aufruge&amp;nbsp;&lt;br&gt;[JSON]" style="edgeLabel;html=1;align=center;verticalAlign=middle;resizable=0;points=[];" parent="DtbgAuB2BSBWwKxTYoln-32" vertex="1" connectable="0">
          <mxGeometry x="-0.3909" relative="1" as="geometry">
            <mxPoint x="-25" y="-5" as="offset" />
          </mxGeometry>
        </mxCell>
        <mxCell id="-SQasBqarVy0rh0c3gkC-1" value="" style="whiteSpace=wrap;html=1;aspect=fixed;fillColor=#f5f5f5;strokeColor=#666666;fontColor=#333333;" vertex="1" parent="1">
          <mxGeometry x="122.24000000000001" y="155" width="110" height="110" as="geometry" />
        </mxCell>
        <mxCell id="-SQasBqarVy0rh0c3gkC-2" value="Admin" style="shape=umlActor;verticalLabelPosition=bottom;verticalAlign=top;html=1;outlineConnect=0;" vertex="1" parent="1">
          <mxGeometry x="158.36" y="175" width="30" height="60" as="geometry" />
        </mxCell>
        <mxCell id="-SQasBqarVy0rh0c3gkC-7" value="" style="endArrow=none;dashed=1;html=1;dashPattern=1 3;strokeWidth=2;rounded=0;entryX=0.5;entryY=1;entryDx=0;entryDy=0;exitX=0.5;exitY=0;exitDx=0;exitDy=0;" edge="1" parent="1" source="4pukfur7Fkz4aeUhOezn-3" target="-SQasBqarVy0rh0c3gkC-1">
          <mxGeometry width="50" height="50" relative="1" as="geometry">
            <mxPoint x="130" y="315" as="sourcePoint" />
            <mxPoint x="180" y="265" as="targetPoint" />
          </mxGeometry>
        </mxCell>
        <mxCell id="-SQasBqarVy0rh0c3gkC-8" value="Will Modelle trainieren" style="edgeLabel;html=1;align=center;verticalAlign=middle;resizable=0;points=[];" vertex="1" connectable="0" parent="-SQasBqarVy0rh0c3gkC-7">
          <mxGeometry x="0.0195" y="-3" relative="1" as="geometry">
            <mxPoint x="-23" y="6" as="offset" />
          </mxGeometry>
        </mxCell>
      </root>
    </mxGraphModel>
  </diagram>
</mxfile>
